<?xml version="1.0" standalone="no"?><!DOCTYPE svg PUBLIC "-//W3C//DTD SVG 1.1//EN" "http://www.w3.org/Graphics/SVG/1.1/DTD/svg11.dtd"><svg t="1753788650622" class="icon" viewBox="0 0 1024 1024" version="1.1" xmlns="http://www.w3.org/2000/svg" p-id="5026" xmlns:xlink="http://www.w3.org/1999/xlink" width="200" height="200"><path d="M585.152 572.544L770.56 387.2a73.152 73.152 0 0 1 103.424 103.424l-310.336 310.4a72.96 72.96 0 0 1-103.424 0l-310.4-310.4A73.152 73.152 0 0 1 253.44 387.2l185.472 185.408V73.152a73.152 73.152 0 0 1 146.304 0v499.392z m-512 305.152h877.696a73.152 73.152 0 0 1 0 146.304H73.152a73.152 73.152 0 0 1 0-146.304z" fill="#008CD6" p-id="5027"></path></svg>